<svg height="64" viewBox="0 0 64 64" width="64" xmlns="http://www.w3.org/2000/svg"><path d="m56.1437083 15.794553s4.8928004-.3917082 6.8562917-1.8763849c0 0-.4706008 1.7091387-6.3581788 7.1167658 0 0 1.9823153 29.1785931-28.2230162 36.3247003 0 0-15.3184181 3.3155825-26.418805-5.142087 0 0 11.6202198 2.0949787 18.157951-5.2315784 0 0-8.4331664.0865572-11.10038697-8.630784 0 0 3.18415747.6968591 5.07669667-.1745816 0 0-9.5524723-2.0069544-9.38016-12.5566684 0 0 2.5817884 1.91893 4.90438436 1.5697669 0 0-8.60403067-7.4131143-3.26958958-16.6527332 0 0 11.52899562 13.812482 25.81788402 12.9923888-.2490564-.9888064-.3837207-2.0245592-.3837207-3.0955217 0-6.8673636 5.4980654-12.4378356 12.279061-12.4378356 3.4259738 0 6.5246991 1.42305975 8.7531749 3.7160931 1.6333468.0278744 4.9927125-.2670071 8.3477342-2.70087934 0 .00146707.1925844 2.66126844-5.0593206 6.77933924z" fill="#5ea7ff" fill-rule="evenodd"/></svg>